<svg width="102" height="40" viewBox="0 0 102 40" fill="none" xmlns="http://www.w3.org/2000/svg">
<path d="M1.88636 15.125H0.409091L4.68182 3.48864H6.13636L10.4091 15.125H8.93182L5.45455 5.32955H5.36364L1.88636 15.125ZM2.43182 10.5795H8.38636V11.8295H2.43182V10.5795ZM19.858 3.48864H21.267V11.1932C21.267 11.9886 21.0795 12.6989 20.7045 13.3239C20.3333 13.9451 19.8087 14.4356 19.1307 14.7955C18.4527 15.1515 17.6572 15.3295 16.7443 15.3295C15.8314 15.3295 15.036 15.1515 14.358 14.7955C13.6799 14.4356 13.1534 13.9451 12.7784 13.3239C12.4072 12.6989 12.2216 11.9886 12.2216 11.1932V3.48864H13.6307V11.0795C13.6307 11.6477 13.7557 12.1534 14.0057 12.5966C14.2557 13.036 14.6117 13.3826 15.0739 13.6364C15.5398 13.8864 16.0966 14.0114 16.7443 14.0114C17.392 14.0114 17.9489 13.8864 18.4148 13.6364C18.8807 13.3826 19.2367 13.036 19.483 12.5966C19.733 12.1534 19.858 11.6477 19.858 11.0795V3.48864ZM23.4446 4.73864V3.48864H32.1719V4.73864H28.5128V15.125H27.1037V4.73864H23.4446ZM43.6804 9.30682C43.6804 10.5341 43.4588 11.5947 43.0156 12.4886C42.5724 13.3826 41.9645 14.072 41.1918 14.5568C40.419 15.0417 39.5365 15.2841 38.544 15.2841C37.5516 15.2841 36.669 15.0417 35.8963 14.5568C35.1236 14.072 34.5156 13.3826 34.0724 12.4886C33.6293 11.5947 33.4077 10.5341 33.4077 9.30682C33.4077 8.07955 33.6293 7.01894 34.0724 6.125C34.5156 5.23106 35.1236 4.54167 35.8963 4.05682C36.669 3.57197 37.5516 3.32955 38.544 3.32955C39.5365 3.32955 40.419 3.57197 41.1918 4.05682C41.9645 4.54167 42.5724 5.23106 43.0156 6.125C43.4588 7.01894 43.6804 8.07955 43.6804 9.30682ZM42.3168 9.30682C42.3168 8.29924 42.1482 7.44886 41.8111 6.75568C41.4777 6.0625 41.0251 5.53788 40.4531 5.18182C39.8849 4.82576 39.2486 4.64773 38.544 4.64773C37.8395 4.64773 37.2012 4.82576 36.6293 5.18182C36.0611 5.53788 35.6084 6.0625 35.2713 6.75568C34.938 7.44886 34.7713 8.29924 34.7713 9.30682C34.7713 10.3144 34.938 11.1648 35.2713 11.858C35.6084 12.5511 36.0611 13.0758 36.6293 13.4318C37.2012 13.7879 37.8395 13.9659 38.544 13.9659C39.2486 13.9659 39.8849 13.7879 40.4531 13.4318C41.0251 13.0758 41.4777 12.5511 41.8111 11.858C42.1482 11.1648 42.3168 10.3144 42.3168 9.30682ZM46.0497 3.48864H47.7315L51.6861 13.1477H51.8224L55.777 3.48864H57.4588V15.125H56.1406V6.28409H56.027L52.3906 15.125H51.1179L47.4815 6.28409H47.3679V15.125H46.0497V3.48864ZM60.7614 15.125H59.2841L63.5568 3.48864H65.0114L69.2841 15.125H67.8068L64.3295 5.32955H64.2386L60.7614 15.125ZM61.3068 10.5795H67.2614V11.8295H61.3068V10.5795ZM69.1009 4.73864V3.48864H77.8281V4.73864H74.169V15.125H72.7599V4.73864H69.1009ZM79.1207 15.125H77.6435L81.9162 3.48864H83.3707L87.6435 15.125H86.1662L82.6889 5.32955H82.598L79.1207 15.125ZM79.6662 10.5795H85.6207V11.8295H79.6662V10.5795ZM62.4 23.373H63.552V29.485H62.4V23.373ZM57.248 26.621H67.184V27.549H57.248V26.621ZM67.136 26.557H69.328V27.629H67.136V26.557ZM59.168 33.869H67.232V34.813H59.168V33.869ZM58.512 24.461H67.728V29.853H58.4V28.941H66.592V25.373H58.512V24.461ZM58.544 30.925H67.856V35.373H66.624V31.869H59.728V35.389H58.544V30.925ZM61.84 20.701H63.072V22.733H61.84V20.701ZM56.464 22.173H69.088V23.229H56.464V22.173ZM55.888 22.173H57.024V26.893C57.024 29.405 56.816 33.037 55.472 35.469C55.264 35.261 54.768 34.941 54.496 34.829C55.776 32.509 55.888 29.245 55.888 26.893V22.173ZM79.04 22.109V23.741H82.288V22.109H79.04ZM77.92 21.213H83.44V24.621H77.92V21.213ZM77.376 26.141V27.837H79.216V26.141H77.376ZM76.448 25.277H80.192V28.717H76.448V25.277ZM82.032 26.141V27.837H83.968V26.141H82.032ZM81.104 25.277H84.944V28.717H81.104V25.277ZM80.064 28.717H81.184V35.373H80.064V28.717ZM81.648 30.413C82.448 31.757 84.032 33.197 85.488 33.853C85.232 34.061 84.88 34.461 84.688 34.749C83.232 33.949 81.696 32.301 80.864 30.733L81.648 30.413ZM76.272 30.029H85.104V31.037H76.272V30.029ZM79.6 30.365L80.464 30.685C79.584 32.365 77.952 33.997 76.32 34.813C76.144 34.541 75.792 34.125 75.536 33.917C77.136 33.261 78.768 31.837 79.6 30.365ZM73.088 20.685L74.144 21.085C73.568 22.253 72.832 23.693 72.24 24.589L71.424 24.237C71.984 23.309 72.704 21.741 73.088 20.685ZM74.864 22.525L75.856 22.989C74.768 24.781 73.264 27.053 72.08 28.413L71.344 28.013C72.528 26.605 74.016 24.221 74.864 22.525ZM70.592 23.949L71.216 23.181C72.064 23.949 73.04 25.005 73.44 25.725L72.768 26.637C72.384 25.869 71.424 24.749 70.592 23.949ZM74.064 26.157L74.928 25.821C75.536 26.893 76.128 28.269 76.304 29.149L75.392 29.533C75.2 28.653 74.656 27.229 74.064 26.157ZM70.48 27.837C71.808 27.773 73.728 27.629 75.648 27.485L75.664 28.445C73.872 28.621 72.08 28.781 70.656 28.909L70.48 27.837ZM74.624 29.949L75.52 29.661C75.952 30.605 76.368 31.853 76.512 32.669L75.568 32.989C75.44 32.173 75.024 30.893 74.624 29.949ZM71.408 29.757L72.416 29.917C72.224 31.453 71.856 32.989 71.376 34.013C71.168 33.869 70.704 33.677 70.448 33.565C70.96 32.589 71.232 31.149 71.408 29.757ZM73.12 28.157H74.176V35.325H73.12V28.157Z" fill="black"/>
<line x1="88" y1="18.5" y2="18.5" stroke="black"/>
</svg>
